<svg xmlns="http://www.w3.org/2000/svg" viewBox="0 0 2800 1000"><defs><style>.a6605859-aeb9-41fd-9510-ce23e4fe933b{fill:#d37b67;}.b9dfa007-a1f5-407a-92e5-ccb7cea18d34{fill:none;stroke:#fff;stroke-linecap:round;stroke-linejoin:round;stroke-width:28px;}.aaa54918-0406-4999-9089-a43c96c48f67,.b28c8dcc-3346-4e5b-8320-63c8d7635a9a{fill:#fff;}.aaa54918-0406-4999-9089-a43c96c48f67{opacity:0.1;}</style></defs><g id="e150172a-c4b6-450c-9161-ae27da9c5150" data-name="BG"><rect class="a6605859-aeb9-41fd-9510-ce23e4fe933b" width="2800" height="1000"/></g><g id="aa243cbb-417c-443c-abc7-87b8b11cee67" data-name="Doctor"><rect class="b9dfa007-a1f5-407a-92e5-ccb7cea18d34" x="694" y="246" width="509" height="509"/><rect class="b9dfa007-a1f5-407a-92e5-ccb7cea18d34" x="694" y="246" width="509" height="163"/><rect class="aaa54918-0406-4999-9089-a43c96c48f67" x="694" y="246" width="509" height="163"/><path class="b28c8dcc-3346-4e5b-8320-63c8d7635a9a" d="M903.18,291.69a79.5,79.5,0,0,0-.64,12.08v27.52c0,18.24-11,28.56-30.24,28.56-9.92,0-18-2.8-22.8-7.84-4.64-5-7-11.92-7-20.88V303.77a78.17,78.17,0,0,0-.64-12.08H859.1a74.3,74.3,0,0,0-.64,12.08v27.52c0,10.08,4.56,14.88,13.92,14.88,9.6,0,14.16-4.8,14.16-14.88V303.77a78.83,78.83,0,0,0-.64-12.08Z" transform="translate(0)"/><path class="b28c8dcc-3346-4e5b-8320-63c8d7635a9a" d="M926.22,341.93c.8,4.16,3.52,6,8.88,6,4.8,0,7.52-1.36,7.52-3.84a3.28,3.28,0,0,0-1.76-2.88c-1.12-.64-2.16-1-6.56-1.84a94.31,94.31,0,0,1-11.84-2.88c-3.84-1.44-6.48-3.28-8-5.68a15.17,15.17,0,0,1-2-7.6c0-9.6,8.08-15.44,21.44-15.44,7.6,0,13.28,1.68,17,5.12,2.64,2.32,3.92,4.64,5.2,9.12l-15.44,1.68c-.4-3.28-2.4-4.72-6.72-4.72-4.16,0-6.72,1.36-6.72,3.44s1.68,3,9.6,4.72,10.32,2.4,13.12,3.84c5.2,2.56,7.68,6.48,7.68,12.24a14.67,14.67,0,0,1-4.08,10.64c-3.84,3.84-10.4,5.84-19,5.84-10.08,0-17.2-2.72-21-8-1.6-2.24-2.4-4.16-3.2-8Z" transform="translate(0)"/><path class="b28c8dcc-3346-4e5b-8320-63c8d7635a9a" d="M977.18,338.33c.8,6.48,4.56,9.92,10.88,9.92a11.68,11.68,0,0,0,8.08-3,7.83,7.83,0,0,0,2.4-4.08l13.92,3.92c-1.84,4.16-3,6-5.28,8.24-4.56,4.48-11,6.8-18.88,6.8s-14-2.24-18.56-6.8c-4.72-4.8-7.28-11.6-7.28-19.52,0-15.84,10.16-26.32,25.44-26.32,12.48,0,21.2,6.8,24,18.72a58.34,58.34,0,0,1,1.2,10.48,14.52,14.52,0,0,0,.08,1.6Zm20.8-11c-1.12-5.12-4.56-7.84-10.08-7.84-5.68,0-9.12,2.56-10.48,7.84Z" transform="translate(0)"/><path class="b28c8dcc-3346-4e5b-8320-63c8d7635a9a" d="M1055.58,323.85a25.82,25.82,0,0,0-8.16-1.52,11.49,11.49,0,0,0-9.52,4.32c-1.52,1.92-2.08,3.6-2.4,7.12v12.48a87.49,87.49,0,0,0,.64,12h-16.56a89.49,89.49,0,0,0,.64-12.08V321.53a78.83,78.83,0,0,0-.64-12.08h15.92v6.32c3.92-5.12,8.72-7.28,16-7.28a32.3,32.3,0,0,1,7.92,1Z" transform="translate(0)"/><line class="b9dfa007-a1f5-407a-92e5-ccb7cea18d34" x1="789" y1="495" x2="907" y2="495"/><line class="b9dfa007-a1f5-407a-92e5-ccb7cea18d34" x1="789" y1="557" x2="907" y2="557"/><line class="b9dfa007-a1f5-407a-92e5-ccb7cea18d34" x1="789" y1="619" x2="907" y2="619"/><line class="b9dfa007-a1f5-407a-92e5-ccb7cea18d34" x1="789" y1="681" x2="907" y2="681"/><circle class="b9dfa007-a1f5-407a-92e5-ccb7cea18d34" cx="1203" cy="528" r="18"/></g><g id="bca0649b-fd1f-4131-a5df-1a9746859981" data-name="JoinTable"><rect class="b9dfa007-a1f5-407a-92e5-ccb7cea18d34" x="1597" y="246" width="509" height="509"/><rect class="b9dfa007-a1f5-407a-92e5-ccb7cea18d34" x="1597" y="246" width="509" height="163"/><rect class="aaa54918-0406-4999-9089-a43c96c48f67" x="1597" y="246" width="509" height="163"/><circle class="b9dfa007-a1f5-407a-92e5-ccb7cea18d34" cx="1597" cy="528" r="18"/><path class="b28c8dcc-3346-4e5b-8320-63c8d7635a9a" d="M1745.9,358.25a65,65,0,0,0-1.92-8.64l-2.16-6.8H1719l-2.16,6.8a46.1,46.1,0,0,0-2,8.64h-18.72a78.81,78.81,0,0,0,3.84-9.76l17.28-48.16a48.83,48.83,0,0,0,2.56-8.64h20.88a63.84,63.84,0,0,0,2.72,8.64l17.36,48.16c1.52,4.24,2.8,7.52,3.84,9.76Zm-15.6-52.88-7.44,24h15Z" transform="translate(0)"/><path class="b28c8dcc-3346-4e5b-8320-63c8d7635a9a" d="M1805.42,323.85a25.82,25.82,0,0,0-8.16-1.52,11.49,11.49,0,0,0-9.52,4.32c-1.52,1.92-2.08,3.6-2.4,7.12v12.48a87.49,87.49,0,0,0,.64,12h-16.56a89.49,89.49,0,0,0,.64-12.08V321.53a78.83,78.83,0,0,0-.64-12.08h15.92v6.32c3.92-5.12,8.72-7.28,16-7.28a32.3,32.3,0,0,1,7.92,1Z" transform="translate(0)"/><path class="b28c8dcc-3346-4e5b-8320-63c8d7635a9a" d="M1820.38,307.77a81.54,81.54,0,0,0-.64-11h16.32a93,93,0,0,0-.64,11v1.68h2.88a54.68,54.68,0,0,0,7.84-.4v13.28a51.68,51.68,0,0,0-7.36-.48h-3.36v20.48c0,2.24.4,3.36,1.44,4.08a7,7,0,0,0,3.68.88,11,11,0,0,0,5.6-1.44l1.2,12.16a34.41,34.41,0,0,1-11,1.6c-5.44,0-9.2-.88-11.76-2.8-3-2.32-4.16-5-4.16-10.48V321.85h-3a48.36,48.36,0,0,0-7,.48V309a48.24,48.24,0,0,0,7.12.48h2.88Z" transform="translate(0)"/><path class="b28c8dcc-3346-4e5b-8320-63c8d7635a9a" d="M1869.1,309.45a79.5,79.5,0,0,0-.64,12.08v24.64a109.14,109.14,0,0,0,.64,12.08h-16.72a89.49,89.49,0,0,0,.64-12.08V321.53a85.78,85.78,0,0,0-.64-12.08Zm-.24-17.76v12h-16.24v-12Z" transform="translate(0)"/><path class="b28c8dcc-3346-4e5b-8320-63c8d7635a9a" d="M1910.3,327.21a11.27,11.27,0,0,0-2.24-4.72,8.46,8.46,0,0,0-6.72-2.8c-6.48,0-10.32,5.12-10.32,13.92,0,8.64,4.08,14.24,10.48,14.24a9.24,9.24,0,0,0,7.6-3.52,7.87,7.87,0,0,0,1.44-3.68l14.72,2.32a24.12,24.12,0,0,1-3.36,7.92c-4,5.92-11.28,9.2-20.56,9.2-7.68,0-14.24-2.4-18.64-6.88-4.64-4.56-7.2-11.6-7.2-19.44,0-16,10.08-26.24,25.68-26.24,12.32,0,20.88,6.08,23.52,16.72Z" transform="translate(0)"/><path class="b28c8dcc-3346-4e5b-8320-63c8d7635a9a" d="M1948.22,291.69a81.54,81.54,0,0,0-.64,12.08v42.4a95.83,95.83,0,0,0,.64,12.08H1931.5a80.85,80.85,0,0,0,.64-12.08v-42.4a76.86,76.86,0,0,0-.64-12.08Z" transform="translate(0)"/><path class="b28c8dcc-3346-4e5b-8320-63c8d7635a9a" d="M1969.26,338.33c.8,6.48,4.56,9.92,10.88,9.92a11.68,11.68,0,0,0,8.08-3,7.83,7.83,0,0,0,2.4-4.08l13.92,3.92c-1.84,4.16-3,6-5.28,8.24-4.56,4.48-11,6.8-18.88,6.8s-14-2.24-18.56-6.8c-4.72-4.8-7.28-11.6-7.28-19.52,0-15.84,10.16-26.32,25.44-26.32,12.48,0,21.2,6.8,24,18.72a58.34,58.34,0,0,1,1.2,10.48,14.52,14.52,0,0,0,.08,1.6Zm20.8-11c-1.12-5.12-4.56-7.84-10.08-7.84-5.68,0-9.12,2.56-10.48,7.84Z" transform="translate(0)"/><line class="b9dfa007-a1f5-407a-92e5-ccb7cea18d34" x1="1692" y1="495" x2="1810" y2="495"/><line class="b9dfa007-a1f5-407a-92e5-ccb7cea18d34" x1="1692" y1="557" x2="1810" y2="557"/><line class="b9dfa007-a1f5-407a-92e5-ccb7cea18d34" x1="1692" y1="619" x2="1810" y2="619"/><line class="b9dfa007-a1f5-407a-92e5-ccb7cea18d34" x1="1692" y1="681" x2="1810" y2="681"/></g><g id="e618ecc8-da83-41b0-8dd4-aa30460f8aa1" data-name="arrows"><path class="b28c8dcc-3346-4e5b-8320-63c8d7635a9a" d="M1538.34,519.61l-49.93-28.83a9.32,9.32,0,0,0-14,8.07V518H1266.07a9.32,9.32,0,0,0,0,18.64h208.36V556.5a9.32,9.32,0,0,0,14,8.07l49.93-28.82a9.32,9.32,0,0,0,0-16.14Z" transform="translate(0)"/></g></svg>